<svg version="1.1" id="Layer_1" xmlns="http://www.w3.org/2000/svg" xmlns:xlink="http://www.w3.org/1999/xlink" x="0px" y="0px"
	 width="100%" viewBox="0 0 496 496" enable-background="new 0 0 496 496" xml:space="preserve">
<path fill="#000000" opacity="1.000000" stroke="none" 
	d="
M260.418457,146.655334 
	C245.880325,145.230637 231.850693,144.590057 217.630356,145.847870 
	C203.442688,147.102783 189.609039,149.681885 176.093048,153.778671 
	C162.543243,157.885666 149.532959,163.520752 137.263443,170.687714 
	C124.867210,177.928711 113.272659,186.232224 102.556557,195.862137 
	C91.959877,205.384720 82.647079,215.976715 74.318771,227.450287 
	C65.982857,238.934341 58.916306,251.215057 53.422264,264.301208 
	C47.943405,277.351196 43.868904,290.824219 41.021255,304.763855 
	C38.243267,318.362488 37.935051,332.234955 36.516491,346.619812 
	C32.819160,344.455872 33.747177,342.046356 33.720688,340.066223 
	C33.321808,310.250763 40.492371,282.213196 53.283989,255.394455 
	C68.552902,223.381836 90.836266,197.386444 119.801598,177.125443 
	C138.766113,163.859955 159.436295,154.246445 181.881699,148.129730 
	C214.234970,139.312973 246.830811,139.026260 279.221252,145.968628 
	C320.229706,154.758163 355.141449,175.301758 383.431732,206.283051 
	C407.670746,232.827759 424.327789,263.580963 431.498779,299.125122 
	C432.611328,304.639587 434.213776,310.055206 435.817291,316.419983 
	C442.990692,308.677032 449.757782,301.372620 456.524872,294.068207 
	C456.932617,294.361877 457.340363,294.655548 457.748108,294.949219 
	C454.582855,304.272003 448.036011,312.011383 444.276489,321.758850 
	C449.637482,321.758850 454.652771,321.758850 460.900146,321.758850 
	C455.995178,326.309875 450.200043,325.200012 445.456268,328.285126 
	C451.719635,336.317047 460.776398,341.535370 467.017578,349.385071 
	C466.725677,349.794159 466.433746,350.203247 466.141846,350.612305 
	C457.481171,346.002991 448.820496,341.393677 439.800110,336.592926 
	C438.153473,342.382935 440.033752,347.597870 439.398193,352.911682 
	C435.171570,348.865967 435.728119,342.777557 432.496368,337.280670 
	C425.557892,344.859161 418.841248,352.195343 412.124634,359.531525 
	C411.667969,359.230469 411.211304,358.929413 410.754639,358.628357 
	C414.243439,349.393341 420.350922,341.359070 424.370972,331.879578 
	C418.830017,330.495575 413.622284,331.746155 408.293518,331.967285 
	C409.922546,329.123291 409.936676,329.176605 414.908539,327.858582 
	C417.602936,327.144318 420.505005,327.100739 423.617157,325.228210 
	C417.073822,317.391266 408.593872,311.803101 402.346619,303.874115 
	C411.917542,306.536896 419.606964,313.033600 429.080566,316.471252 
	C430.544067,312.033508 429.177216,307.900879 428.506866,304.028625 
	C424.603394,281.481415 416.256287,260.517303 404.508484,240.944901 
	C386.549347,211.024017 362.266754,187.494644 331.902496,170.312515 
	C309.788757,157.799057 286.164948,149.716858 260.418457,146.655334 
z"/>
<path fill="#000000" opacity="1.000000" stroke="none" 
	d="
M340.695465,337.226288 
	C339.597809,334.949799 339.165222,332.642609 337.415405,331.268219 
	C335.102264,329.451385 332.264130,329.857147 329.777222,330.645172 
	C327.541962,331.353516 328.381226,333.751312 328.307953,335.472595 
	C328.187683,338.297211 328.294403,341.130737 328.256012,343.959869 
	C328.233093,345.649750 328.221313,347.558777 325.953827,347.718109 
	C323.440643,347.894684 322.980469,345.965881 322.961426,344.029602 
	C322.895966,337.372314 322.907013,330.714264 322.904907,324.056488 
	C322.903564,319.728912 322.949280,315.401245 322.936951,311.073761 
	C322.929077,308.319061 323.896881,306.633575 327.003784,306.710022 
	C331.328918,306.816467 335.673859,306.543335 339.980774,306.849213 
	C344.665894,307.182007 348.171448,309.545502 349.673218,314.213928 
	C351.220062,319.022583 350.875458,323.800568 346.698730,326.926056 
	C343.273865,329.488953 343.594666,331.764526 345.274994,334.873566 
	C346.853577,337.794312 348.216370,340.833008 349.636719,343.837433 
	C350.281677,345.201752 351.091492,346.794739 349.211548,347.718933 
	C347.435425,348.592163 345.881775,347.692993 345.014923,346.086548 
	C343.515289,343.307526 342.214539,340.421143 340.695465,337.226288 
M334.415039,311.393250 
	C332.280396,311.720764 329.560883,310.451569 328.471710,313.614075 
	C325.788879,321.403717 328.540161,325.238190 336.662872,325.041229 
	C338.339600,325.000580 339.976776,324.902130 341.513153,324.101959 
	C345.025146,322.272797 346.132141,317.188751 343.460236,314.318604 
	C341.286865,311.984039 338.391907,311.250458 334.415039,311.393250 
z"/>
<path fill="#000000" opacity="1.000000" stroke="none" 
	d="
M184.149994,331.793640 
	C184.688522,345.075165 173.006836,352.075653 162.627930,346.987701 
	C158.806137,345.114197 156.214600,342.292603 155.698410,337.901276 
	C154.977631,331.769501 154.775635,325.638519 155.486694,319.481262 
	C156.553879,310.240295 160.878540,306.480682 170.377701,306.686523 
	C178.134079,306.854645 183.560364,312.162598 184.076309,320.341003 
	C184.306473,323.989288 184.137512,327.662720 184.149994,331.793640 
M160.397018,321.121490 
	C160.593277,326.401947 159.613235,331.751617 161.022339,336.954315 
	C162.374100,341.945282 165.156235,343.511383 170.869827,342.935852 
	C175.496841,342.469788 177.596664,339.644836 177.727341,335.295959 
	C177.886597,329.995636 177.765015,324.687225 177.796753,319.382507 
	C177.817078,315.983490 175.923737,313.882935 173.184464,312.273224 
	C168.735321,309.658691 161.140274,312.257629 160.397018,321.121490 
z"/>
<path fill="#000000" opacity="1.000000" stroke="none" 
	d="
M107.580643,320.360626 
	C111.394608,323.497559 115.935074,324.375549 119.893867,326.496979 
	C127.100258,330.358673 129.690796,334.547058 127.964157,340.612793 
	C126.564163,345.531006 119.761436,349.362244 113.333290,348.852783 
	C106.390427,348.302521 101.326347,344.665070 100.129845,339.275787 
	C99.695351,337.318695 99.141518,335.016479 101.811020,334.295502 
	C104.125107,333.670532 104.763771,335.446564 105.420036,337.382507 
	C107.193039,342.612762 116.073669,345.113739 120.437302,341.764069 
	C123.598175,339.337616 123.612862,335.294434 119.978554,333.008820 
	C116.340797,330.721008 112.281784,329.100922 108.399147,327.205078 
	C102.105682,324.132080 99.803429,320.282745 100.929825,314.678223 
	C101.943802,309.633057 106.364639,306.867401 113.165787,306.643768 
	C119.029434,306.450928 124.168129,307.547150 127.129181,313.242828 
	C128.301208,315.497284 129.414902,318.363617 126.562675,319.818726 
	C123.587700,321.336487 122.792892,318.444397 121.834808,316.265686 
	C119.899742,311.865265 114.451721,309.800568 110.082031,311.929688 
	C106.581924,313.635071 105.135124,316.314240 107.580643,320.360626 
z"/>
<path fill="#000000" opacity="1.000000" stroke="none" 
	d="
M287.312195,321.841736 
	C289.620911,329.190308 291.900421,336.132477 294.050140,343.114594 
	C294.550842,344.740875 295.659515,346.948700 293.029907,347.733276 
	C290.621643,348.451752 289.219879,346.841431 288.809021,344.628204 
	C288.103333,340.826569 285.639954,339.956604 282.242310,340.186890 
	C280.253845,340.321655 278.231689,340.379395 276.255157,340.175690 
	C272.924500,339.832489 270.883118,341.016235 269.973663,344.348267 
	C269.363861,346.582550 267.995178,348.607086 265.325989,347.503723 
	C262.610931,346.381409 264.123840,344.109680 264.693726,342.329224 
	C268.089172,331.720490 271.551880,321.133301 274.981293,310.535400 
	C275.701599,308.309448 276.788666,306.596649 279.517395,306.788727 
	C281.958679,306.960541 282.748413,308.558563 283.394257,310.651093 
	C284.520050,314.298431 285.939362,317.855194 287.312195,321.841736 
M278.498474,317.090454 
	C276.785492,322.727844 275.072479,328.365234 273.309235,334.168030 
	C277.469849,335.464813 281.011108,335.162109 285.183502,334.506866 
	C283.421783,328.195404 282.708191,321.902527 278.498474,317.090454 
z"/>
<path fill="#000000" opacity="1.000000" stroke="none" 
	d="
M236.244171,348.045441 
	C229.821899,348.094086 223.823502,348.052795 217.826248,348.116425 
	C214.268005,348.154144 212.740417,346.577240 212.775665,342.963013 
	C212.876450,332.633667 212.766052,322.302429 212.812866,311.972290 
	C212.823059,309.723145 212.396469,306.762543 215.963547,306.949829 
	C219.286057,307.124298 218.976990,310.027435 219.009308,312.279968 
	C219.102539,318.776794 219.017838,325.275909 219.053284,331.773865 
	C219.123108,344.573883 217.583450,342.624207 230.304077,342.798370 
	C232.136551,342.823486 233.970062,342.795471 235.801880,342.840881 
	C237.386917,342.880157 238.894608,343.262268 239.269775,345.054077 
	C239.687180,347.047577 238.200790,347.599701 236.244171,348.045441 
z"/>
</svg>